Coordinates
version=1
nRows=34
nColumns=38
inDegrees=no

Units are S.I. units (second, meters, Newtons, ...)
If the header above contains a line with 'inDegrees', this indicates whether rotational values are in degrees (yes) or radians (no).

endheader
time	pelvis_tilt	pelvis_list	pelvis_rotation	pelvis_tx	pelvis_ty	pelvis_tz	hip_flexion_r	hip_adduction_r	hip_rotation_r	knee_angle_r	ankle_angle_r	subtalar_angle_r	mtp_angle_r	hip_flexion_l	hip_adduction_l	hip_rotation_l	knee_angle_l	ankle_angle_l	subtalar_angle_l	mtp_angle_l	lumbar_extension	lumbar_bending	lumbar_rotation	arm_flex_r	arm_add_r	arm_rot_r	elbow_flex_r	pro_sup_r	wrist_flex_r	wrist_dev_r	arm_flex_l	arm_add_l	arm_rot_l	elbow_flex_l	pro_sup_l	wrist_flex_l	wrist_dev_l
35	1.658	1.55539	0.0222531	0.628865	0.387285	1.06635	0.0951601	-0.0740922	-0.189014	0.282558	-0.314622	0	0	-0.0148646	-0.176942	-0.276893	0.163478	-0.303657	0	0	-0.197204	-0.00387937	0.0892856	0.561815	-0.656174	0.576839	1.15455	0.546112	0	0	0.476728	-0.36641	0.246921	1.1553	0.835889	0	0
35.01	1.80092	1.55554	-0.119964	0.628566	0.38721	1.06662	0.0930105	-0.0749567	-0.191478	0.283226	-0.314639	0	0	-0.0165834	-0.176572	-0.276903	0.164337	-0.303635	0	0	-0.199842	-0.00362348	0.0883262	0.562928	-0.656809	0.577713	1.15442	0.545682	0	0	0.476976	-0.36598	0.246696	1.1558	0.836258	0	0
35.02	1.91061	1.55565	-0.229051	0.628292	0.387081	1.06682	0.0916319	-0.0759699	-0.193488	0.284012	-0.314549	0	0	-0.0175578	-0.176134	-0.276903	0.165327	-0.303721	0	0	-0.202085	-0.00364562	0.0874832	0.564246	-0.65748	0.578977	1.15408	0.545625	0	0	0.477332	-0.365581	0.246561	1.15617	0.836381	0	0
35.03	1.98604	1.55581	-0.304002	0.628062	0.3869	1.06694	0.0910722	-0.0770169	-0.194896	0.285048	-0.314359	0	0	-0.0177854	-0.175708	-0.277009	0.16645	-0.30383	0	0	-0.203926	-0.00383573	0.0867907	0.565736	-0.658265	0.58086	1.1538	0.546182	0	0	0.477828	-0.365295	0.24668	1.15642	0.836327	0	0
35.04	2.03004	1.55609	-0.347712	0.627881	0.386674	1.067	0.0912494	-0.0779775	-0.195577	0.286187	-0.314075	0	0	-0.0174826	-0.175158	-0.277251	0.167446	-0.303825	0	0	-0.205396	-0.00412421	0.086319	0.567162	-0.658953	0.582836	1.15357	0.546669	0	0	0.478392	-0.365089	0.247009	1.15659	0.836181	0	0
35.05	2.04909	1.55655	-0.36664	0.627744	0.386404	1.067	0.0920964	-0.0789476	-0.195612	0.287508	-0.313659	0	0	-0.0168005	-0.174469	-0.277596	0.168331	-0.303546	0	0	-0.206676	-0.00436657	0.0860476	0.56831	-0.659386	0.583492	1.15329	0.545861	0	0	0.478993	-0.364789	0.247176	1.15667	0.835975	0	0
35.06	2.03192	1.55718	-0.349527	0.627647	0.386098	1.06692	0.0937639	-0.0798257	-0.195069	0.289154	-0.313037	0	0	-0.0154039	-0.173947	-0.277948	0.169696	-0.302752	0	0	-0.207497	-0.0045674	0.0859593	0.56919	-0.659468	0.582937	1.15274	0.544135	0	0	0.479549	-0.364402	0.2472	1.15666	0.835793	0	0
35.07	2.00609	1.55772	-0.323821	0.627596	0.385779	1.06682	0.0953999	-0.0803725	-0.194182	0.2906	-0.313564	0	0	-0.0140771	-0.173653	-0.27807	0.170899	-0.302606	0	0	-0.208306	-0.00476851	0.0860197	0.57001	-0.659617	0.582739	1.15233	0.544307	0	0	0.480292	-0.364022	0.247385	1.15646	0.835734	0	0
35.08	1.94544	1.55834	-0.263297	0.62758	0.385467	1.06664	0.0974837	-0.0808346	-0.193103	0.292064	-0.313034	0	0	-0.0123235	-0.173381	-0.278186	0.171888	-0.302099	0	0	-0.208555	-0.00506381	0.0859801	0.570959	-0.659745	0.583598	1.15191	0.544293	0	0	0.480914	-0.363793	0.247577	1.15612	0.835807	0	0
35.09	1.84427	1.55907	-0.162313	0.627606	0.385167	1.06638	0.10015	-0.0813815	-0.192	0.293851	-0.312236	0	0	-0.0101464	-0.173091	-0.278308	0.172766	-0.30177	0	0	-0.208205	-0.00560229	0.0860446	0.571733	-0.659726	0.584666	1.15137	0.544727	0	0	0.481556	-0.363536	0.247762	1.15546	0.835795	0	0
35.1	1.70433	1.55973	-0.0226033	0.627681	0.384885	1.06607	0.103143	-0.0819384	-0.190817	0.295652	-0.311226	0	0	-0.00771402	-0.172786	-0.278525	0.173566	-0.301486	0	0	-0.207481	-0.00620622	0.0861727	0.572284	-0.659388	0.58472	1.15054	0.544223	0	0	0.48223	-0.363469	0.248282	1.15453	0.835386	0	0
35.11	1.69267	1.55939	-0.0102755	0.62743	0.384642	1.06612	0.103671	-0.0819077	-0.191698	0.296229	-0.310695	0	0	-0.00699392	-0.173028	-0.278718	0.17394	-0.30132	0	0	-0.208866	-0.00565626	0.0856017	0.572963	-0.65958	0.584695	1.14986	0.543727	0	0	0.482857	-0.362674	0.248412	1.15363	0.834918	0	0
35.12	1.78833	1.55888	-0.10483	0.627139	0.384402	1.06628	0.102449	-0.0818688	-0.194051	0.296013	-0.311194	0	0	-0.00767846	-0.173367	-0.278927	0.174089	-0.301085	0	0	-0.21195	-0.00493202	0.0839837	0.574855	-0.659452	0.586072	1.14915	0.545428	0	0	0.482937	-0.36226	0.247246	1.15381	0.834176	0	0
35.13	1.83213	1.5585	-0.147519	0.626873	0.384158	1.06636	0.102063	-0.0820371	-0.196323	0.29617	-0.31169	0	0	-0.00776228	-0.173516	-0.278912	0.174051	-0.301112	0	0	-0.214414	-0.00455079	0.0827917	0.575725	-0.659411	0.586405	1.14888	0.54637	0	0	0.483432	-0.361688	0.246693	1.15346	0.834529	0	0
35.14	1.84406	1.55827	-0.158333	0.626642	0.383873	1.06639	0.102264	-0.0823404	-0.198352	0.296533	-0.311986	0	0	-0.00723473	-0.173656	-0.278698	0.174329	-0.301014	0	0	-0.21669	-0.00427875	0.0816051	0.576242	-0.658995	0.585366	1.14864	0.54588	0	0	0.484097	-0.361348	0.246329	1.15311	0.835238	0	0
35.15	1.81682	1.55817	-0.130102	0.626457	0.383544	1.06636	0.103261	-0.0826621	-0.199911	0.297318	-0.311987	0	0	-0.00607185	-0.173773	-0.278272	0.174741	-0.300778	0	0	-0.218561	-0.004183	0.0805011	0.576782	-0.65849	0.584805	1.14842	0.546541	0	0	0.484723	-0.360997	0.245778	1.15278	0.836026	0	0
35.16	1.75618	1.55805	-0.0686472	0.626307	0.383176	1.06627	0.104905	-0.0828511	-0.201041	0.298356	-0.311753	0	0	-0.00428975	-0.173969	-0.278084	0.175457	-0.300318	0	0	-0.220077	-0.00420221	0.0795958	0.577745	-0.658068	0.584964	1.14778	0.548846	0	0	0.485391	-0.360484	0.245057	1.15228	0.836517	0	0
35.17	1.72028	1.55775	-0.0320621	0.626203	0.382742	1.06619	0.106191	-0.0827936	-0.201849	0.299079	-0.312456	0	0	-0.00285396	-0.174387	-0.277696	0.175972	-0.3009	0	0	-0.222234	-0.00398198	0.0791132	0.579047	-0.658156	0.584979	1.14737	0.546153	0	0	0.486844	-0.360066	0.245306	1.15122	0.835354	0	0
35.18	1.60404	1.55744	0.0846216	0.626154	0.382239	1.06598	0.109352	-0.0829368	-0.20229	0.300957	-0.312392	0	0	0.000145153	-0.174878	-0.277573	0.177284	-0.300464	0	0	-0.223701	-0.00391521	0.0784181	0.580219	-0.657465	0.584105	1.1469	0.546821	0	0	0.48771	-0.359842	0.24444	1.15082	0.83559	0	0
35.19	1.45389	1.55694	0.234941	0.626155	0.381669	1.06569	0.113736	-0.0833721	-0.202451	0.303774	-0.312202	0	0	0.00390462	-0.175306	-0.277785	0.17888	-0.299885	0	0	-0.224814	-0.00408316	0.077975	0.581525	-0.656847	0.583556	1.14641	0.548566	0	0	0.488839	-0.359487	0.243455	1.15013	0.835939	0	0
35.2	1.19301	1.5555	0.495469	0.626275	0.381047	1.06516	0.121657	-0.0841374	-0.20192	0.309519	-0.308858	0	0	0.0107421	-0.176001	-0.279336	0.182912	-0.296777	0	0	-0.22416	-0.00492539	0.0775844	0.582186	-0.654652	0.581665	1.1451	0.558079	0	0	0.489073	-0.359267	0.241077	1.15041	0.839181	0	0
35.21	1.05539	1.55392	0.632678	0.626449	0.380332	1.06477	0.127657	-0.0844436	-0.201198	0.31362	-0.307961	0	0	0.0159491	-0.176863	-0.279958	0.186135	-0.295613	0	0	-0.225459	-0.00558179	0.0776331	0.584072	-0.65361	0.581713	1.14435	0.560563	0	0	0.490584	-0.35922	0.240033	1.15026	0.840619	0	0
35.22	0.933162	1.55187	0.754309	0.626679	0.379552	1.06432	0.134082	-0.0845954	-0.200114	0.317628	-0.307206	0	0	0.0215246	-0.177762	-0.280259	0.189451	-0.294312	0	0	-0.227034	-0.00619429	0.0778457	0.585826	-0.652379	0.580305	1.14396	0.561231	0	0	0.492136	-0.359286	0.238671	1.15056	0.841931	0	0
35.23	0.8473	1.54984	0.839586	0.626929	0.378712	1.06387	0.140445	-0.0848337	-0.199436	0.322273	-0.306772	0	0	0.0269053	-0.178726	-0.28051	0.193024	-0.292824	0	0	-0.229404	-0.00690871	0.0779218	0.588281	-0.651252	0.579578	1.14366	0.562495	0	0	0.493856	-0.359357	0.236796	1.1512	0.84326	0	0
35.24	0.872367	1.54918	0.815253	0.62682	0.377986	1.06381	0.142843	-0.0848752	-0.202135	0.325206	-0.306852	0	0	0.0293723	-0.179909	-0.280331	0.195573	-0.291928	0	0	-0.234667	-0.00672579	0.0770109	0.591098	-0.650796	0.57959	1.14326	0.564519	0	0	0.496072	-0.358873	0.235168	1.15144	0.844613	0	0
35.25	0.885974	1.54835	0.80239	0.626769	0.377212	1.06371	0.146022	-0.0850693	-0.204784	0.329197	-0.306763	0	0	0.0327815	-0.181429	-0.280556	0.199482	-0.290576	0	0	-0.24019	-0.00669089	0.0760213	0.593981	-0.650303	0.57964	1.14323	0.568141	0	0	0.49841	-0.358516	0.23322	1.15194	0.846438	0	0
35.26	0.870365	1.54717	0.818727	0.626761	0.376356	1.06351	0.150032	-0.0854083	-0.206793	0.332905	-0.306762	0	0	0.0375058	-0.182888	-0.280483	0.204134	-0.289227	0	0	-0.245346	-0.0069979	0.0751453	0.596692	-0.649769	0.579463	1.1435	0.571152	0	0	0.501106	-0.35823	0.231615	1.15242	0.847855	0	0
35.27	0.836326	1.54551	0.853545	0.626785	0.375419	1.06321	0.154842	-0.0857132	-0.208219	0.336429	-0.306763	0	0	0.0434259	-0.184439	-0.280089	0.209358	-0.287794	0	0	-0.250238	-0.00730713	0.074288	0.598912	-0.648875	0.577393	1.14403	0.571921	0	0	0.504087	-0.358104	0.230329	1.15288	0.848974	0	0
35.28	0.805076	1.54342	0.885647	0.626822	0.374429	1.06286	0.160449	-0.08589	-0.209828	0.340776	-0.306715	0	0	0.0501275	-0.186465	-0.279607	0.215278	-0.286409	0	0	-0.255102	-0.00737457	0.0735558	0.600825	-0.64783	0.574027	1.14458	0.571875	0	0	0.507341	-0.357941	0.229249	1.15327	0.849367	0	0
35.29	0.782761	1.54129	0.908844	0.626867	0.373392	1.06251	0.166069	-0.0859701	-0.211247	0.345031	-0.306746	0	0	0.0567365	-0.188571	-0.278537	0.220743	-0.285723	0	0	-0.26025	-0.00733406	0.0730376	0.602683	-0.646836	0.570872	1.14507	0.5736	0	0	0.511116	-0.357636	0.228713	1.1532	0.849195	0	0
35.3	0.722769	1.53764	0.969511	0.626961	0.372313	1.06186	0.175364	-0.0866603	-0.21218	0.352474	-0.304644	0	0	0.0668366	-0.191088	-0.279642	0.229652	-0.281353	0	0	-0.264087	-0.00764721	0.0702102	0.60783	-0.64417	0.57166	1.14402	0.57567	0	0	0.511331	-0.358223	0.222396	1.15679	0.856102	0	0
35.31	0.685409	1.5345	1.00767	0.627073	0.371187	1.06127	0.183731	-0.0872949	-0.212746	0.359233	-0.303805	0	0	0.0756252	-0.193294	-0.279741	0.237025	-0.279028	0	0	-0.268681	-0.00816697	0.0689863	0.611247	-0.642498	0.570189	1.1434	0.578868	0	0	0.514328	-0.358268	0.220051	1.15803	0.858769	0	0
35.32	0.651628	1.53089	1.04221	0.627195	0.369971	1.06061	0.192634	-0.087715	-0.212761	0.365755	-0.302962	0	0	0.0852404	-0.195726	-0.279675	0.244965	-0.276475	0	0	-0.273438	-0.00853295	0.0677838	0.614928	-0.640847	0.568675	1.14296	0.58198	0	0	0.517472	-0.358459	0.217695	1.15965	0.86113	0	0
35.33	0.624123	1.527	1.07046	0.627341	0.368687	1.0599	0.202067	-0.0880613	-0.212426	0.372912	-0.301935	0	0	0.0955295	-0.198521	-0.279893	0.253723	-0.273783	0	0	-0.278432	-0.0088071	0.0666178	0.618874	-0.639129	0.567368	1.14252	0.585694	0	0	0.520855	-0.358739	0.215481	1.16133	0.86326	0	0
